<?xml version="1.0" encoding="utf-8"?>
<!-- Generator: Adobe Illustrator 17.0.0, SVG Export Plug-In . SVG Version: 6.00 Build 0)  -->
<!DOCTYPE svg PUBLIC "-//W3C//DTD SVG 1.1//EN" "http://www.w3.org/Graphics/SVG/1.1/DTD/svg11.dtd">
<svg version="1.1" id="Cross" xmlns="http://www.w3.org/2000/svg" xmlns:xlink="http://www.w3.org/1999/xlink" x="0px" y="0px"
	 width="200px" height="200px" viewBox="0 0 200 200" enable-background="new 0 0 200 200" xml:space="preserve">
<g>
	<polygon points="96.5,172.5 96.5,103.5 27.5,103.5 27.5,96.5 96.5,96.5 96.5,27.5 103.5,27.5 103.5,96.5 172.5,96.5 172.5,103.5 
		103.5,103.5 103.5,172.5 	"/>
	<path fill="#FFFFFF" d="M103,28v69h69v6h-69v69h-6v-69H28v-6h69V28H103 M104,27h-1h-6h-1v1v68H28h-1v1v6v1h1h68v68v1h1h6h1v-1v-68
		h68h1v-1v-6v-1h-1h-68V28V27L104,27z"/>
</g>
</svg>
