<?xml version="1.0" encoding="utf-8"?>
<!-- Generator: Adobe Illustrator 17.0.0, SVG Export Plug-In . SVG Version: 6.00 Build 0)  -->
<!DOCTYPE svg PUBLIC "-//W3C//DTD SVG 1.1//EN" "http://www.w3.org/Graphics/SVG/1.1/DTD/svg11.dtd">
<svg version="1.1" id="Cross" xmlns="http://www.w3.org/2000/svg" xmlns:xlink="http://www.w3.org/1999/xlink" x="0px" y="0px"
	 width="200px" height="200px" viewBox="0 0 200 200" enable-background="new 0 0 200 200" xml:space="preserve">
<g>
	<path d="M100,109c-4.962,0-9-4.037-9-9c0-4.962,4.038-9,9-9s9,4.038,9,9C109,104.963,104.962,109,100,109z"/>
	<path fill="#FFFFFF" d="M100,92.5c4.142,0,7.5,3.358,7.5,7.5s-3.358,7.5-7.5,7.5s-7.5-3.358-7.5-7.5S95.858,92.5,100,92.5
		 M100,89.5c-5.79,0-10.5,4.71-10.5,10.5s4.71,10.5,10.5,10.5s10.5-4.71,10.5-10.5S105.79,89.5,100,89.5L100,89.5z"/>
</g>
</svg>
